<?xml version="1.0" standalone="no"?>
<!DOCTYPE svg PUBLIC "-//W3C//DTD SVG 20010904//EN"
 "http://www.w3.org/TR/2001/REC-SVG-20010904/DTD/svg10.dtd">
<svg version="1.0" xmlns="http://www.w3.org/2000/svg"
 width="1280.000000pt" height="1140.000000pt" viewBox="0 0 1280.000000 1140.000000"
 preserveAspectRatio="xMidYMid meet">
<metadata>
Created by potrace 1.15, written by Peter Selinger 2001-2017
</metadata>
<g transform="translate(0.000000,1140.000000) scale(0.100000,-0.100000)"
fill="#000000" stroke="none">
<path d="M3345 11393 c-555 -35 -1119 -210 -1603 -497 -494 -294 -929 -727
-1226 -1221 -516 -857 -647 -1905 -376 -3000 211 -851 652 -1714 1324 -2585
1029 -1336 2592 -2656 4624 -3904 119 -73 226 -138 237 -143 11 -5 41 -9 67
-7 41 1 73 17 240 119 3133 1913 5162 4012 5865 6070 187 548 266 1006 267
1545 0 305 -12 448 -59 706 -203 1102 -881 2013 -1886 2533 -362 187 -773 313
-1201 366 -652 81 -1413 -51 -1998 -345 -269 -136 -483 -292 -711 -519 -209
-209 -343 -386 -496 -659 l-29 -52 -49 87 c-260 472 -662 866 -1137 1118 -527
278 -1236 427 -1853 388z"/>
</g>
</svg>
