<?xml version="1.0" ?><svg data-name="Layer 1" id="Layer_1" viewBox="0 0 64 64" xmlns="http://www.w3.org/2000/svg"><defs><style>.cls-1{fill:none;}</style></defs><title/><path d="M33,56.26a1.57,1.57,0,0,1-1.53-1.6,1,1,0,0,0-2,0A3.53,3.53,0,1,0,33,51.06H20.82a1,1,0,0,0,0,2H33a1.6,1.6,0,0,1,0,3.2Z"/><path d="M41.59,54.48a2.79,2.79,0,0,1-2.73-2.83,1,1,0,0,0-2,0,4.73,4.73,0,1,0,4.73-4.83H13.35a1,1,0,0,0,0,2H41.59a2.83,2.83,0,0,1,0,5.66Z"/><path class="cls-1" d="M16.95,27.57a1,1,0,1,0-1.82.82q.26.58.57,1.14a1,1,0,0,0,1.75-1Q17.18,28.08,16.95,27.57Z"/><path d="M53.3,26.71a1,1,0,0,1-.89-1.12,1.53,1.53,0,0,0,0-.18,6.1,6.1,0,0,0-7.49-5.95l-.07,0a6,6,0,0,0-.59.17l-.08,0a5.82,5.82,0,0,0-.6.26,6.1,6.1,0,0,0-2.53,8.59,1,1,0,1,1-1.72,1,8.1,8.1,0,0,1,2.64-11A13.4,13.4,0,0,0,29.13,8.74h0c-.45,0-.89,0-1.32.07l-.32,0c-.31,0-.61.08-.91.14l-.6.14-.57.15-.74.25-.37.14q-.42.16-.82.36l-.24.12c-.29.15-.58.3-.86.47l-.14.09c-.3.18-.59.37-.88.58l-.06,0a13.51,13.51,0,0,0-3.67,4.05l-.17.29c-.09.17-.17.35-.26.52s-.21.41-.3.62-.12.29-.17.44-.2.5-.28.76-.08.27-.12.41-.15.55-.22.84-.05.27-.08.41a13.33,13.33,0,0,0-.23,2.43q0,.5,0,1a1,1,0,0,1-.92,1.07h-.08a1,1,0,0,1-1-.93q0-.57,0-1.15c0-.35,0-.7.05-1a11.38,11.38,0,0,0,.56,22.75H52.44a8.56,8.56,0,0,0,.86-17.08ZM17.06,29.92a1,1,0,0,1-1.36-.39q-.31-.56-.57-1.14a1,1,0,1,1,1.82-.82q.23.51.5,1A1,1,0,0,1,17.06,29.92Zm9.09,7.21H38.37a1.6,1.6,0,1,0-1.53-1.6,1,1,0,0,1-2,0,3.53,3.53,0,1,1,3.53,3.6H26.15a1,1,0,1,1,0-2Zm20.77,5.44H18.68a1,1,0,1,1,0-2H46.92a2.83,2.83,0,1,0-2.73-2.83,1,1,0,0,1-2,0,4.73,4.73,0,1,1,4.73,4.83Z"/></svg>